HIERARCHY
ROOT hip
{
	OFFSET 0.000000 0.000000 0.000000 
	CHANNELS 6 Xposition Yposition Zposition Xrotation Zrotation Yrotation
	JOINT abdomen
	{
		OFFSET 0.000000 3.402643 0.000000 
		CHANNELS 3 Xrotation Zrotation Yrotation
		JOINT chest
		{
			OFFSET 0.000000 8.438565 -0.680529 
			CHANNELS 3 Xrotation Zrotation Yrotation
			JOINT neck
			{
				OFFSET 0.000000 10.207942 -0.272212 
				CHANNELS 3 Xrotation Zrotation Yrotation
				JOINT head
				{
					OFFSET 0.000000 3.130431 0.000000 
					CHANNELS 3 Xrotation Zrotation Yrotation
					End Site
					{
						OFFSET 0.000000 3.130435 0.000000 
					}
				}
			}
			JOINT lCollar
			{
				OFFSET 3.470700 6.669187 -0.816635 
				CHANNELS 3 Yrotation Zrotation Xrotation
				JOINT lShldr
				{
					OFFSET 3.198488 0.000000 0.000000 
					CHANNELS 3 Zrotation Yrotation Xrotation
					JOINT lForeArm
					{
						OFFSET 10.139888 0.000000 0.000000 
						CHANNELS 3 Yrotation Zrotation Xrotation
						JOINT lHand
						{
							OFFSET 8.370511 0.000000 0.000000 
							CHANNELS 3 Zrotation Yrotation Xrotation
							End Site
							{
								OFFSET 4.083176 0.000000 0.000000 
							}
						}
					}
				}
			}
			JOINT rCollar
			{
				OFFSET -3.470700 6.669187 -0.816635 
				CHANNELS 3 Yrotation Zrotation Xrotation
				JOINT rShldr
				{
					OFFSET -3.198488 0.000000 0.000000 
					CHANNELS 3 Zrotation Yrotation Xrotation
					JOINT rForeArm
					{
						OFFSET -10.139888 0.000000 0.000000 
						CHANNELS 3 Yrotation Zrotation Xrotation
						JOINT rHand
						{
							OFFSET -8.370511 0.000000 0.000000 
							CHANNELS 3 Zrotation Yrotation Xrotation
							End Site
							{
								OFFSET -4.083176 0.000000 0.000000 
							}
						}
					}
				}
			}
		}
	}
	JOINT lThigh
	{
		OFFSET 5.308129 -1.633274 1.361059 
		CHANNELS 3 Xrotation Zrotation Yrotation
		JOINT lShin
		{
			OFFSET -2.041588 -20.007561 0.000000 
			CHANNELS 3 Xrotation Zrotation Yrotation
			JOINT lFoot
			{
				OFFSET 0.000000 -19.190928 -1.224953 
				CHANNELS 3 Xrotation Yrotation Zrotation
				End Site
				{
					OFFSET 0.000000 -2.449906 4.627600 
				}
			}
		}
	}
	JOINT rThigh
	{
		OFFSET -5.308129 -1.633274 1.361059 
		CHANNELS 3 Xrotation Zrotation Yrotation
		JOINT rShin
		{
			OFFSET 2.041588 -20.007561 0.000000 
			CHANNELS 3 Xrotation Zrotation Yrotation
			JOINT rFoot
			{
				OFFSET 0.000000 -19.190928 -1.224953 
				CHANNELS 3 Xrotation Yrotation Zrotation
				End Site
				{
					OFFSET 0.000000 -2.449906 4.627600 
				}
			}
		}
	}
}
MOTION
Frames: 18
Frame Time: 0.033333
-0.419148 48.168125 -0.419148 -0.542233 -0.291820 -24.796949 26.150967 3.409743 -13.302052 2.031250 0.000141 -0.019530 -8.544922 -0.001505 -0.009645 19.365446 10.564849 44.745007 2.000000 -2.000000 0.000000 -25.384825 -15.267792 3.142002 -90.247177 -0.520425 8.980649 -39.796803 -7.000781 -111.048622 -2.000000 2.000000 0.000000 128.148788 49.620369 71.709961 56.461227 0.547592 8.637298 6.818373 -51.222317 -27.238291 -30.738413 22.720037 14.605200 27.191868 -1.319606 -2.297428 7.655971 -7.251893 -9.906229 4.950719 -17.362461 -13.476095 29.453217 1.197597 2.385650 -25.141401 -17.356558 16.337002 
-0.904978 47.592178 -0.904978 -1.079131 -0.602476 -22.866741 27.958254 -0.877985 -5.959829 3.349610 0.000141 -0.019530 -8.544922 -0.001505 -0.009645 20.266005 4.178820 41.140881 2.000000 -2.000000 0.000000 -30.769506 -1.950565 22.936956 -92.815269 -0.530326 9.015450 -18.551989 16.322844 -71.766647 -2.000000 2.000000 0.000000 102.738541 48.959274 47.674881 58.672970 0.543686 8.660109 1.429274 -47.285973 -14.957994 -33.141632 23.160772 14.252687 29.714260 -1.222194 -2.453548 7.958442 -7.906465 -9.263573 3.015926 -17.214136 -13.693636 34.572861 0.982689 2.675761 -27.543863 -18.528578 15.720539 
-1.420853 47.111374 -1.420853 -1.633388 -0.829562 -20.867575 29.445915 -5.471799 1.500886 5.175781 0.000220 -0.019529 -8.544922 -0.001505 -0.009645 22.652176 -1.609989 37.124332 2.000000 -2.000000 0.000000 -39.688835 1.239081 26.083660 -90.859428 -0.525713 8.989305 -11.830432 13.812165 -50.780136 -2.000000 2.000000 0.000000 82.681000 40.830822 26.614235 60.951031 0.529751 8.689749 -2.470958 -42.529827 -3.675726 -34.970654 23.496109 14.139734 31.209360 -1.176888 -2.538442 8.777060 -8.651125 -8.573194 1.648564 -16.821999 -14.231083 38.722351 0.787373 2.900324 -29.623701 -19.651112 14.947599 
-1.936740 46.700703 -1.936740 -2.130837 -1.085744 -18.859659 30.520922 -10.100268 8.769981 6.962890 0.000296 -0.019527 -8.544922 -0.001505 -0.009645 26.349323 -6.241041 32.861694 2.000000 -2.000000 0.000000 -49.214344 4.838990 24.903051 -88.168640 -0.516557 8.958136 -11.376893 7.556547 -34.008602 -2.000000 2.000000 0.000000 71.871895 28.453657 12.333414 63.189678 0.527074 8.702986 -4.819269 -37.461124 6.190452 -36.331612 23.753105 14.161578 31.943026 -1.124746 -2.572013 9.818504 -9.408116 -7.936569 0.672647 -16.275984 -15.044161 42.079330 0.621353 3.076233 -31.439426 -20.686682 14.062176 
-2.382506 46.310032 -2.382506 -2.541663 -1.272583 -16.999901 31.182095 -14.440355 15.543885 8.623046 0.000366 -0.019524 -8.544922 -0.001505 -0.009645 30.833466 -9.410839 28.740808 2.000000 -2.000000 0.000000 -58.493282 8.253036 20.647846 -85.499313 -0.515551 8.933509 -15.891212 0.888612 -20.524347 -2.000000 2.000000 0.000000 68.020828 15.194478 2.604542 65.313271 0.522364 8.735031 -5.889583 -32.537933 14.552789 -37.360191 23.981108 14.281468 32.196480 -1.115030 -2.601800 10.967547 -10.137538 -7.301485 0.057480 -15.649662 -15.936452 44.703850 0.484625 3.201236 -33.034214 -21.546295 13.154776 
-2.803217 45.984493 -2.803217 -2.908089 -1.427671 -15.386818 31.484320 -18.225258 21.496376 10.087891 0.000429 -0.019522 -8.544922 -0.001505 -0.009645 35.393799 -11.187475 25.187862 2.000000 -2.000000 0.000000 -66.617493 10.611588 14.994208 -82.967316 -0.513328 8.915849 -23.119667 -4.409612 -9.311278 -2.000000 2.000000 0.000000 68.427933 3.372636 -4.623269 67.213776 0.515318 8.746962 -6.082872 -28.182711 21.322067 -38.093510 24.177464 14.433235 32.186920 -1.120220 -2.592985 12.028698 -10.810328 -6.773777 -0.324054 -15.003127 -16.879175 46.693779 0.367321 3.289125 -34.419395 -22.222414 12.302979 
-3.113754 45.754093 -3.113754 -3.186271 -1.536934 -14.064132 31.540655 -21.193340 26.262625 11.220703 0.000476 -0.019520 -8.544922 -0.001505 -0.009645 39.287857 -11.926726 22.548590 2.000000 -2.000000 0.000000 -72.858940 11.509821 9.643291 -80.336830 -0.512597 8.888748 -30.450459 -7.691289 -0.023407 -2.000000 2.000000 0.000000 70.955559 -5.695500 -10.161474 68.833717 0.510591 8.762129 -5.765896 -24.795677 26.292841 -38.632225 24.325615 14.561386 32.128201 -1.124774 -2.591205 12.890769 -11.355191 -6.345272 -0.518848 -14.478596 -17.737179 48.137535 0.289369 3.345038 -35.492535 -22.716480 11.594779 
-3.334130 45.603825 -3.334130 -3.363322 -1.583035 -13.241756 31.475605 -23.128649 29.424465 11.982422 0.000509 -0.019518 -8.544922 -0.001505 -0.009645 41.928158 -12.094657 20.943445 2.000000 -2.000000 0.000000 -76.622833 10.856200 6.023769 -77.016747 -0.505656 8.843277 -35.146473 -9.108400 7.241253 -2.000000 2.000000 0.000000 73.642578 -11.379720 -13.879341 70.030991 0.510559 8.768828 -5.306995 -22.665520 29.209137 -39.061432 24.461811 14.669977 32.196838 -1.115044 -2.592101 13.412596 -11.717569 -6.057661 -0.675569 -14.133794 -18.334698 49.093224 0.230656 3.384630 -36.246380 -23.011446 11.124908 
-3.439305 45.428551 -3.439305 -3.444531 -1.605939 -12.814214 31.457651 -24.313951 31.350302 12.460938 0.000529 -0.019517 -8.544922 -0.001505 -0.009645 43.613087 -12.229215 20.220892 2.000000 -2.000000 0.000000 -78.620308 9.179433 4.236529 -73.482117 -0.510537 8.806467 -37.333874 -9.539932 12.477600 -2.000000 2.000000 0.000000 75.693901 -14.658696 -16.107885 70.921143 0.512392 8.782001 -4.988132 -21.465237 30.732092 -39.370945 24.595379 14.691088 32.372528 -1.105223 -2.608141 13.648527 -11.911696 -5.929045 -0.821390 -13.989168 -18.650946 49.776672 0.201370 3.394495 -36.706135 -23.088903 10.877553 
-3.534466 45.353420 -3.534466 -3.592721 -1.656231 -12.689910 31.568415 -25.248926 32.691719 12.841796 0.000542 -0.019516 -8.544922 -0.001505 -0.009645 44.953384 -12.578581 20.021202 2.000000 -2.000000 0.000000 -80.058426 7.280493 3.515761 -70.782951 -0.512877 8.780352 -38.907135 -9.660815 16.046749 -2.000000 2.000000 0.000000 77.408920 -16.901134 -17.688440 71.630112 0.506129 8.795002 -4.848854 -20.710781 31.776287 -39.515400 24.769037 14.699694 32.518990 -1.105391 -2.615659 13.790921 -11.991993 -5.921146 -1.036032 -13.980957 -18.853788 50.341583 0.162354 3.432865 -37.040192 -22.990145 10.709032 
-3.604587 45.278286 -3.604587 -3.718775 -1.683603 -12.809294 31.791180 -25.919544 33.542103 13.154297 0.000554 -0.019515 -8.544922 -0.001505 -0.009645 45.978695 -13.109614 20.262260 2.000000 -2.000000 0.000000 -81.112991 5.399918 3.636542 -68.870773 -0.517501 8.762820 -39.952656 -9.611671 18.177608 -2.000000 2.000000 0.000000 78.681412 -18.300993 -18.655331 72.161247 0.507065 8.789143 -4.889880 -20.284996 32.366829 -39.507141 24.956062 14.723337 32.636448 -1.095512 -2.618960 13.859738 -11.974777 -5.968361 -1.221161 -14.063195 -18.945925 50.789722 0.138722 3.462781 -37.234634 -22.768335 10.647113 
-3.644655 45.278286 -3.644655 -3.836895 -1.717961 -13.158472 32.109997 -26.409782 33.919945 13.369141 0.000559 -0.019515 -8.544922 -0.001505 -0.009645 46.699375 -13.803717 20.812725 2.000000 -2.000000 0.000000 -81.930687 3.664527 4.294951 -67.653564 -0.522652 8.744896 -40.566677 -9.492350 19.176291 -2.000000 2.000000 0.000000 79.477165 -19.000427 -19.045578 72.589737 0.504558 8.800590 -5.062399 -20.178297 32.568512 -39.397884 25.159191 14.700239 32.743488 -1.095634 -2.634172 13.804078 -11.892274 -6.134392 -1.417221 -14.231704 -18.923920 51.140633 0.113286 3.477446 -37.326603 -22.396873 10.634724 
-3.641320 45.298290 -3.641320 -3.937891 -1.705960 -13.583941 32.449860 -26.695322 33.977028 13.515625 0.000562 -0.019515 -8.544922 -0.001505 -0.009645 47.135147 -14.595500 21.554775 2.000000 -2.000000 0.000000 -82.533386 2.093145 5.318889 -66.914909 -0.520291 8.742033 -40.852009 -9.337249 19.311409 -2.000000 2.000000 0.000000 79.796997 -19.111593 -18.892181 72.912376 0.507033 8.802282 -5.313451 -20.353062 32.388405 -39.225067 25.357588 14.722413 32.811844 -1.095515 -2.637624 13.736212 -11.746441 -6.315429 -1.564120 -14.465618 -18.800293 51.394333 0.103474 3.484859 -37.277534 -21.977995 10.730472 
-3.637975 45.318291 -3.637975 -4.026687 -1.717997 -14.150569 32.835644 -26.782578 33.697872 13.603517 0.000562 -0.019515 -8.544922 -0.001505 -0.009645 47.311890 -15.418753 22.425169 2.000000 -2.000000 0.000000 -82.987373 0.775189 6.353886 -66.531754 -0.523693 8.740655 -40.900127 -9.189190 18.921013 -2.000000 2.000000 0.000000 79.697273 -18.780020 -18.335390 73.171669 0.506393 8.810812 -5.605242 -20.701023 31.882677 -38.960037 25.531908 14.718113 32.871056 -1.085763 -2.628245 13.598414 -11.572060 -6.546986 -1.710115 -14.730358 -18.658085 51.550091 0.093764 3.497383 -37.197079 -21.546293 10.858131 
-3.634641 45.338287 -3.634641 -4.118011 -1.776757 -14.685291 33.188919 -26.712244 33.189266 13.613281 0.000559 -0.019515 -8.544922 -0.001505 -0.009645 47.251732 -16.205530 23.315971 2.000000 -2.000000 0.000000 -83.338501 -0.270394 7.207829 -66.371124 -0.521628 8.735787 -40.807240 -9.061521 18.256216 -2.000000 2.000000 0.000000 79.267746 -18.091612 -17.422777 73.368195 0.506897 8.816792 -5.880150 -21.239763 31.072918 -38.677349 25.688709 14.733821 32.890434 -1.091086 -2.630697 13.446069 -11.388313 -6.768788 -1.875347 -14.989013 -18.424812 51.598877 0.083953 3.495156 -37.028591 -21.115303 11.008240 
-3.594574 45.353420 -3.594574 -4.141916 -1.757033 -15.198265 33.520439 -26.506090 32.528141 13.564452 0.000554 -0.019516 -8.544922 -0.001505 -0.009645 46.989979 -16.864544 24.164003 2.000000 -2.000000 0.000000 -83.600464 -0.921398 7.624319 -66.320045 -0.525477 8.740615 -40.682297 -8.967945 17.658789 -2.000000 2.000000 0.000000 78.601173 -17.124052 -16.252817 73.564590 0.509383 8.813395 -6.085016 -21.901817 29.964790 -38.416126 25.789038 14.754329 32.890434 -1.091086 -2.630697 13.289027 -11.211273 -6.941882 -1.992690 -15.244381 -18.213921 51.579002 0.089923 3.506616 -36.845390 -20.739819 11.161659 
-3.534466 45.428551 -3.534466 -4.171769 -1.752285 -15.631221 33.746334 -26.185465 31.803574 13.476563 0.000549 -0.019516 -8.544922 -0.001505 -0.009645 46.536118 -17.328724 24.875957 2.000000 -2.000000 0.000000 -83.813255 -1.031736 7.303876 -66.320045 -0.525477 8.740615 -40.613815 -8.923242 17.380280 -2.000000 2.000000 0.000000 77.774536 -15.994860 -14.919572 73.786789 0.505131 8.812325 -6.156008 -22.608526 28.617496 -38.197151 25.823339 14.772638 32.870697 -1.085766 -2.637948 13.146573 -11.040145 -7.093458 -2.070902 -15.437623 -18.001873 51.472031 0.093854 3.493774 -36.635765 -20.463551 11.307652 
-3.484385 45.453552 -3.484385 -4.143270 -1.740825 -15.917236 33.845997 -25.762419 31.063959 13.320313 0.000541 -0.019516 -8.544922 -0.001505 -0.009645 45.960926 -17.512751 25.369869 2.000000 -2.000000 0.000000 -84.243484 -1.218130 7.018780 -65.991394 -0.525746 8.733846 -40.684368 -8.860291 17.310400 -2.000000 2.000000 0.000000 76.885124 -14.797043 -13.516568 74.043175 0.510433 8.822301 -6.052093 -23.354115 27.032064 -38.021694 25.813957 14.759590 32.811844 -1.095518 -2.637625 13.033384 -10.925480 -7.197910 -2.070879 -15.552651 -17.830669 51.277237 0.113358 3.483889 -36.445660 -20.324652 11.406984 
